HIERARCHY
ROOT Hips
{
    OFFSET 0.000000 0.000000 0.000000
    CHANNELS 6 Xposition Yposition Zposition Zrotation Xrotation Yrotation
    JOINT Spine
    {
        OFFSET -0.000000 14.517291 0.000000
        CHANNELS 3 Zrotation Xrotation Yrotation
        JOINT Spine1
        {
            OFFSET -0.000000 37.558300 0.000000
            CHANNELS 3 Zrotation Xrotation Yrotation
            JOINT Neck
            {
                OFFSET -0.000000 37.404057 3.400369
                CHANNELS 3 Zrotation Xrotation Yrotation
                JOINT Head
                {
                    OFFSET -0.000000 24.785618 -3.540803
                    CHANNELS 3 Zrotation Xrotation Yrotation
                    End Site
                    {
                        OFFSET -0.000000 35.408028 0.000000
                    }
                }
            }
            JOINT LeftShoulder
            {
                OFFSET 6.992933 33.973492 -0.192664
                CHANNELS 3 Zrotation Xrotation Yrotation
                JOINT LeftArm
                {
                    OFFSET 21.527611 0.000000 0.000000
                    CHANNELS 3 Zrotation Xrotation Yrotation
                    JOINT LeftForeArm
                    {
                        OFFSET 56.353916 0.000000 0.000000
                        CHANNELS 3 Zrotation Xrotation Yrotation
                        JOINT LeftHand
                        {
                            OFFSET 47.774071 0.000000 0.000000
                            CHANNELS 3 Zrotation Xrotation Yrotation
                            End Site
                            {
                                OFFSET 26.556021 0.000000 0.000000
                            }
                        }
                    }
                }
            }
            JOINT RightShoulder
            {
                OFFSET -7.065357 33.973492 -0.192664
                CHANNELS 3 Zrotation Xrotation Yrotation
                JOINT RightArm
                {
                    OFFSET -21.527611 0.000000 0.000000
                    CHANNELS 3 Zrotation Xrotation Yrotation
                    JOINT RightForeArm
                    {
                        OFFSET -56.353916 0.000000 0.000000
                        CHANNELS 3 Zrotation Xrotation Yrotation
                        JOINT RightHand
                        {
                            OFFSET -47.774071 0.000000 0.000000
                            CHANNELS 3 Zrotation Xrotation Yrotation
                            End Site
                            {
                                OFFSET -26.556021 0.000000 0.000000
                            }
                        }
                    }
                }
            }
        }
    }
    JOINT LeftUpLeg
    {
        OFFSET 17.704014 0.000000 0.000000
        CHANNELS 3 Zrotation Xrotation Yrotation
        JOINT LeftLeg
        {
            OFFSET -0.000000 -81.181816 0.000000
            CHANNELS 3 Zrotation Xrotation Yrotation
            JOINT LeftFoot
            {
                OFFSET -0.000000 -62.821102 0.000000
                CHANNELS 3 Zrotation Xrotation Yrotation
                JOINT LeftToeBase
                {
                    OFFSET -0.000000 -11.507608 26.556021
                    CHANNELS 3 Zrotation Xrotation Yrotation
                    End Site
                    {
                        OFFSET -0.000000 0.000000 7.081605
                    }
                }
            }
        }
    }
    JOINT RightUpLeg
    {
        OFFSET -17.704014 0.000000 0.000000
        CHANNELS 3 Zrotation Xrotation Yrotation
        JOINT RightLeg
        {
            OFFSET -0.000000 -81.181816 0.000000
            CHANNELS 3 Zrotation Xrotation Yrotation
            JOINT RightFoot
            {
                OFFSET -0.000000 -62.821102 0.000000
                CHANNELS 3 Zrotation Xrotation Yrotation
                JOINT RightToeBase
                {
                    OFFSET -0.000000 -11.507608 26.556021
                    CHANNELS 3 Zrotation Xrotation Yrotation
                    End Site
                    {
                        OFFSET -0.000000 0.000000 7.081605
                    }
                }
            }
        }
    }
}
MOTION
Frames:    12
Frame Time:    0.008333
1.816196    153.419800    -97.465828    -0.736851    -0.721379    65.857147    -1.983995    0.681554    -5.020980    -7.970102    1.269526    -1.587695    6.682541    -0.609330    -13.521452    13.427333    2.086559    -13.477934    8.840870    6.175815    -23.834900    -25.098709    23.316839    -59.002903    -16.527315    0.582649    -96.704620    15.294886    -18.436531    -3.445956    -12.968386    -4.692719    -6.720220    20.201187    -21.882936    48.594879    -18.847008    -18.110201    52.944954    -8.645279    -10.953698    27.180347    24.290970    -16.315187    11.011175    -13.882981    30.413252    -12.314399    -5.409194    -12.598935    43.581112    0.000000    0.000000    0.000000    -26.916939    -13.360025    -24.382423    12.684467    30.913582    -18.726635    2.238458    1.238464    -27.725023    0.000000    0.000000    0.000000    
1.886570    153.355164    -97.557541    -0.726260    -0.712565    65.843834    -1.990320    0.690386    -4.991614    -7.973395    1.282126    -1.577048    6.648359    -0.563308    -13.518255    13.464590    2.028990    -13.455225    8.814641    6.179172    -23.821814    -25.143356    23.289057    -58.949532    -16.592384    0.624250    -96.676392    15.307777    -18.465485    -3.479308    -12.981500    -4.680798    -6.696534    20.239456    -21.848558    48.576752    -18.886572    -18.137669    52.970398    -8.663047    -10.959172    27.157076    24.323782    -16.349962    11.003679    -14.028091    30.551558    -12.229183    -5.491100    -12.782937    43.592716    0.000000    0.000000    0.000000    -27.006857    -13.341072    -24.392962    12.745389    30.933098    -18.741240    2.274987    1.198855    -27.710070    0.000000    0.000000    0.000000    
1.957111    153.294296    -97.642860    -0.694629    -0.704977    65.822037    -2.004112    0.710664    -4.955670    -7.978598    1.301849    -1.563769    6.593020    -0.504684    -13.532226    13.533368    1.977598    -13.443360    8.771965    6.177578    -23.802164    -25.135189    23.325611    -58.914383    -16.603626    0.560078    -96.680855    15.328522    -18.537226    -3.449115    -13.003391    -4.676539    -6.661754    20.309118    -21.844328    48.547829    -18.850546    -18.158691    53.056137    -8.761494    -10.995934    27.042847    24.337528    -16.343956    11.030187    -14.136599    30.662392    -12.147034    -5.546569    -12.945988    43.562473    0.000000    0.000000    0.000000    -27.093409    -13.302233    -24.395611    12.787846    30.947641    -18.747719    2.334717    1.140002    -27.669622    0.000000    0.000000    0.000000    
2.021890    153.237549    -97.729362    -0.654599    -0.678796    65.797462    -2.038723    0.734068    -4.907861    -7.981812    1.311631    -1.547320    6.544686    -0.448971    -13.563391    13.589431    1.946001    -13.454654    8.707156    6.186584    -23.782530    -25.133095    23.301683    -58.875519    -16.674236    0.608363    -96.634315    15.319752    -18.563780    -3.517756    -13.002924    -4.633880    -6.641539    20.364182    -21.853741    48.538414    -18.830894    -18.180111    53.136669    -8.671299    -10.985528    26.984846    24.315371    -16.328039    11.096693    -14.190393    30.758944    -12.107986    -5.599919    -13.080900    43.498753    0.000000    0.000000    0.000000    -27.202662    -13.264050    -24.403578    12.838443    30.965401    -18.734842    2.405893    1.072771    -27.653910    0.000000    0.000000    0.000000    
2.081722    153.190491    -97.812424    -0.613546    -0.633522    65.768150    -2.095620    0.745424    -4.848103    -7.989088    1.332476    -1.526080    6.525727    -0.431604    -13.580677    13.609615    1.947825    -13.466578    8.670588    6.199111    -23.776367    -25.104160    23.245613    -58.867996    -16.241545    0.977190    -96.293030    15.569264    -17.766096    -4.567126    -12.992505    -4.600953    -6.646549    20.360725    -21.744730    48.533936    -18.958000    -18.286482    53.117905    -8.713365    -11.035057    26.861572    24.268040    -16.315691    11.203607    -14.205673    30.860016    -12.111697    -5.661903    -13.215437    43.432495    0.000000    0.000000    0.000000    -27.321400    -13.228527    -24.458378    12.844005    30.977940    -18.709696    2.515790    0.996433    -27.606554    0.000000    0.000000    0.000000    
2.129644    153.154037    -97.887970    -0.589876    -0.589911    65.751701    -2.151338    0.756276    -4.807644    -7.977484    1.327404    -1.513278    6.480507    -0.428575    -13.589111    13.646762    1.993868    -13.469160    8.611328    6.206249    -23.761105    -25.152540    23.254519    -58.793621    -16.811707    0.722843    -96.564461    15.303353    -18.595381    -3.593908    -12.989875    -4.543738    -6.644535    20.391659    -21.680048    48.546169    -19.021271    -18.373356    53.155003    -8.745437    -11.091528    26.848488    24.228035    -16.332390    11.331660    -14.198155    30.973431    -12.159796    -5.688021    -13.299500    43.377670    0.000000    0.000000    0.000000    -27.428162    -13.195865    -24.510643    12.859724    30.975788    -18.717648    2.637804    0.926157    -27.547451    0.000000    0.000000    0.000000    
2.168743    153.127594    -97.954247    -0.577092    -0.557656    65.744179    -2.186855    0.759614    -4.772095    -7.999129    1.330009    -1.501083    6.497977    -0.439733    -13.597354    13.651956    2.039231    -13.485896    8.604425    6.201794    -23.741566    -25.197674    23.256763    -58.744106    -16.844288    0.781746    -96.528976    15.213220    -18.568388    -3.645808    -12.947714    -4.504987    -6.658961    20.443310    -21.653561    48.578636    -19.021982    -18.409285    53.211994    -8.711039    -11.113981    26.917896    24.206335    -16.369890    11.446773    -14.204641    31.098360    -12.172221    -5.738742    -13.379738    43.320599    0.000000    0.000000    0.000000    -27.511524    -13.156000    -24.585455    12.861541    30.953079    -18.754330    2.759328    0.880306    -27.455336    0.000000    0.000000    0.000000    
2.196148    153.109406    -98.016846    -0.593462    -0.533408    65.737732    -2.207492    0.748645    -4.737081    -7.996307    1.320216    -1.490104    6.503830    -0.458491    -13.597383    13.640909    2.082826    -13.494443    8.583031    6.196979    -23.722540    -25.193544    23.270020    -58.721954    -16.331377    1.123677    -96.225929    15.519140    -17.697781    -4.523271    -12.922232    -4.470538    -6.676433    20.455692    -21.590160    48.603951    -19.059834    -18.459837    53.255882    -8.668646    -11.125731    26.891470    24.212767    -16.431129    11.493904    -14.263347    31.199251    -12.110892    -5.740993    -13.405510    43.261742    0.000000    0.000000    0.000000    -27.573017    -13.131175    -24.685228    12.858285    30.912783    -18.762274    2.892600    0.838560    -27.374765    0.000000    0.000000    0.000000    
2.222042    153.096588    -98.071899    -0.616885    -0.535282    65.743843    -2.189477    0.739954    -4.718811    -8.006593    1.305123    -1.484901    6.540184    -0.463215    -13.572234    13.589123    2.089293    -13.481044    8.583003    6.202166    -23.693760    -25.234158    23.264328    -58.710304    -16.194397    1.277236    -96.127869    15.653364    -17.376280    -4.545283    -12.908160    -4.454717    -6.666522    20.498539    -21.561932    48.612175    -19.068813    -18.446228    53.315994    -8.636610    -11.087184    26.894272    24.245493    -16.497704    11.504476    -14.331123    31.303854    -12.053404    -5.778201    -13.469517    43.232952    0.000000    0.000000    0.000000    -27.600826    -13.091517    -24.828430    12.834354    30.863981    -18.734015    2.966531    0.837774    -27.271687    0.000000    0.000000    0.000000    
2.241921    153.088867    -98.125580    -0.652236    -0.553600    65.747337    -2.139021    0.731850    -4.699872    -8.017853    1.276955    -1.480230    6.526539    -0.461798    -13.561563    13.587889    2.103717    -13.469508    8.576844    6.216327    -23.665236    -25.284254    23.270039    -58.643696    -16.396469    1.286848    -96.188316    15.568308    -17.600691    -4.492454    -12.915314    -4.431511    -6.654704    20.533047    -21.528803    48.611874    -19.087717    -18.415121    53.375191    -8.683864    -11.041715    26.860800    24.300585    -16.560122    11.490124    -14.430313    31.381306    -11.944162    -5.781467    -13.510172    43.189091    0.000000    0.000000    0.000000    -27.604065    -13.065111    -24.987087    12.795064    30.819029    -18.675838    3.012195    0.870554    -27.173355    0.000000    0.000000    0.000000    
2.260478    153.078598    -98.178764    -0.690147    -0.579127    65.752785    -2.082329    0.718399    -4.689055    -8.019484    1.261607    -1.477524    6.520304    -0.469563    -13.541283    13.563357    2.105599    -13.450951    8.566288    6.219759    -23.621614    -25.326366    23.271404    -58.622101    -16.256229    1.451415    -96.095612    15.674438    -17.268688    -4.540248    -12.912976    -4.416987    -6.648231    20.560093    -21.514250    48.648342    -19.091249    -18.377108    53.416859    -8.702779    -10.998989    26.895052    24.357100    -16.624767    11.511326    -14.486164    31.472944    -11.896098    -5.771518    -13.553289    43.152157    0.000000    0.000000    0.000000    -27.603052    -13.041286    -25.156300    12.763901    30.774813    -18.580721    3.013311    0.910607    -27.110380    0.000000    0.000000    0.000000    
2.273909    153.068619    -98.227524    -0.727636    -0.603690    65.757202    -2.019538    0.710236    -4.672116    -8.034904    1.234070    -1.473443    6.556648    -0.467330    -13.523545    13.483863    2.075748    -13.443998    8.582689    6.216771    -23.601814    -25.373049    23.317535    -58.576675    -16.271975    1.472606    -96.117218    15.800096    -17.275114    -4.522594    -12.908536    -4.414249    -6.628578    20.658401    -21.572628    48.750832    -19.062088    -18.256407    53.401691    -8.706904    -10.896564    26.936792    24.412663    -16.686735    11.564665    -14.519483    31.563925    -11.905888    -5.773520    -13.599332    43.142754    0.000000    0.000000    0.000000    -27.602818    -13.032595    -25.325928    12.731009    30.757320    -18.457628    3.008243    0.951174    -27.072163    0.000000    0.000000    0.000000    
